# xmcd
# 
# Track frame offsets:
#     150
#     9871
#     19545
#     29662
#     40097
#     52328
#     62981
#     74722
#     84656
#     92306
#     100717
#     111591
#     121795
#     130526
#     146674
#     158740
# 
# Disc length: 2356
# 
# Revision: 2
# Processed by: cddbd v1.5.2PL0 Copyright (c) Steve Scherf et al.
# Submitted via: BonkEnc v1.0.15
# 
DISCID=d4093210
DTITLE=JOHNNY CASH - Feel The Groove - CD2
DYEAR=0
DGENRE=Country
TTITLE0=Rock Island Line
TTITLE1=Born To Lose
TTITLE2=The Ways Of A Woman In Love
TTITLE3=Cold Cold Heart
TTITLE4=I Walk The Line
TTITLE5=I Just Thought You'd Like To Know
TTITLE6=Thanks A Lot
TTITLE7=Goodbye Little Darling
TTITLE8=Hey Good Lookin'
TTITLE9=I Forgot To Remember To Forget
TTITLE10=I Love You Because
TTITLE11=There You Go
TTITLE12=Two Timin' Woman
TTITLE13=City Of New Orleans
TTITLE14=Jackson
TTITLE15=Orange Blossom Special
EXTD=
EXTT0=
EXTT1=
EXTT2=
EXTT3=
EXTT4=
EXTT5=
EXTT6=
EXTT7=
EXTT8=
EXTT9=
EXTT10=
EXTT11=
EXTT12=
EXTT13=
EXTT14=
EXTT15=
PLAYORDER=
